<svg width="78" height="79" viewBox="0 0 78 79" fill="none" xmlns="http://www.w3.org/2000/svg">
<path d="M69.6429 79H8.35714C3.74156 79 0 75.2105 0 70.5357V8.46429C0 3.78953 3.74156 0 8.35714 0H69.6429C74.2584 0 78 3.78953 78 8.46429V70.5357C78 75.2105 74.2584 79 69.6429 79ZM34.0056 61.7083L66.0413 29.2619C67.1291 28.1601 67.1291 26.3737 66.0413 25.2719L62.1018 21.2819C61.0139 20.1801 59.2501 20.1799 58.1621 21.2819L32.0357 47.743L19.8379 35.3888C18.7501 34.2871 16.9862 34.2871 15.8982 35.3888L11.9587 39.3789C10.8709 40.4806 10.8709 42.2671 11.9587 43.3689L30.0659 61.7082C31.1539 62.8103 32.9176 62.8103 34.0056 61.7083Z" fill="#43BCB5"/>
</svg>
