<svg width="94" height="73" viewBox="0 0 94 73" fill="none" xmlns="http://www.w3.org/2000/svg">
<path d="M93.4605 43.3614L81.6413 66.9638C80.7215 68.8006 79.4046 70.3245 77.8217 71.3836C76.2388 72.4427 74.4452 73 72.6198 73H7.34783C4.32498 73 2.44155 69.1802 3.96465 66.1386L15.7838 42.5362C16.7036 40.6994 18.0206 39.1755 19.6036 38.1164C21.1865 37.0573 22.9801 36.5 24.8056 36.5H90.0775C93.1003 36.5 94.9837 40.3198 93.4605 43.3614ZM24.8056 30.4167H78.3334V21.2917C78.3334 16.252 74.8263 12.1667 70.5 12.1667H44.3889L33.9445 0H7.83333C3.50705 0 0 4.08534 0 9.125V61.9827L11.273 39.4709C14.0696 33.8861 19.2552 30.4167 24.8056 30.4167Z" fill="#43BCB5"/>
</svg>
