<svg width="576" height="384" viewBox="0 0 576 384" fill="none" xmlns="http://www.w3.org/2000/svg">
<path d="M572.694 228.093L500.27 352.248C494.634 361.91 486.564 369.926 476.865 375.497C467.165 381.069 456.175 384 444.989 384H45.025C26.502 384 14.961 363.907 24.294 347.907L96.718 223.752C102.354 214.09 110.424 206.074 120.124 200.503C129.824 194.932 140.814 192 152 192H551.964C570.487 192 582.028 212.093 572.694 228.093ZM152 160H480V112C480 85.49 458.51 64 432 64H272L208 0H48C21.49 0 0 21.49 0 48V326.046L69.077 207.628C86.214 178.25 117.989 160 152 160Z" fill="#2B2B2B"/>
</svg>
