<svg width="81" height="86" viewBox="0 0 81 86" fill="none" xmlns="http://www.w3.org/2000/svg">
<path d="M79.9654 53.3338L72.6982 49.0685C73.4318 45.046 73.4318 40.9194 72.6982 36.8968L79.9654 32.6315C80.8013 32.146 81.1766 31.1404 80.9036 30.2041C79.0101 24.0315 75.7859 18.4485 71.5723 13.8017C70.9241 13.0908 69.8664 12.9175 69.0476 13.4029L61.7804 17.6682C58.7269 14.9981 55.2127 12.9348 51.4085 11.5824V3.0691C51.4085 2.09814 50.7432 1.24854 49.805 1.04048C43.5443 -0.381288 37.1301 -0.311933 31.1765 1.04048C30.2382 1.24854 29.5729 2.09814 29.5729 3.0691V11.5997C25.7858 12.9695 22.2717 15.0328 19.201 17.6856L11.9509 13.4203C11.115 12.9348 10.0744 13.0908 9.42618 13.8191C5.21259 18.4485 1.98842 24.0315 0.0948688 30.2214C-0.195135 31.1577 0.197223 32.1633 1.03312 32.6488L8.30028 36.9141C7.56674 40.9367 7.56674 45.0633 8.30028 49.0859L1.03312 53.3512C0.197223 53.8367 -0.178076 54.8423 0.0948688 55.7786C1.98842 61.9511 5.21259 67.5342 9.42618 72.1809C10.0744 72.8918 11.1321 73.0652 11.9509 72.5797L19.2181 68.3144C22.2717 70.9846 25.7858 73.0479 29.59 74.4003V82.9309C29.59 83.9019 30.2553 84.7515 31.1935 84.9595C37.4542 86.3813 43.8684 86.3119 49.822 84.9595C50.7603 84.7515 51.4256 83.9019 51.4256 82.9309V74.4003C55.2127 73.0305 58.7269 70.9672 61.7975 68.3144L69.0647 72.5797C69.9006 73.0652 70.9412 72.9092 71.5894 72.1809C75.803 67.5515 79.0272 61.9685 80.9207 55.7786C81.1766 54.825 80.8013 53.8193 79.9654 53.3338ZM40.4907 56.8536C32.9677 56.8536 26.8435 50.629 26.8435 42.9827C26.8435 35.3363 32.9677 29.1117 40.4907 29.1117C48.0138 29.1117 54.138 35.3363 54.138 42.9827C54.138 50.629 48.0138 56.8536 40.4907 56.8536Z" fill="white"/>
</svg>
