<svg width="83" height="72" viewBox="0 0 83 72" fill="none" xmlns="http://www.w3.org/2000/svg">
<path d="M62.25 61.5573C62.25 67.3269 56.4522 72 49.3086 72C42.1649 72 36.3671 67.3269 36.3671 61.5573C36.3671 55.7876 42.1649 51.1145 49.3086 51.1145C56.4522 51.1145 62.25 55.7876 62.25 61.5573Z" fill="#43BCB5"/>
<path fill-rule="evenodd" clip-rule="evenodd" d="M62.25 9.34352V61.5573L57.1171 61.5572V9.34352H62.25Z" fill="#43BCB5"/>
<path d="M57.1171 8.37331C57.1178 7.16347 57.5328 5.99123 58.2916 5.05589C59.0504 4.12055 60.106 3.47985 61.2791 3.24272L76.8088 0.101545C77.5595 -0.0502093 78.3342 -0.0316726 79.077 0.15582C79.8198 0.343312 80.5122 0.695092 81.1043 1.18582C81.6965 1.67654 82.1737 2.29399 82.5015 2.99368C82.8293 3.69337 82.9995 4.45788 83 5.23213V14.551L57.1171 19.7863V8.37331Z" fill="#43BCB5"/>
<path fill-rule="evenodd" clip-rule="evenodd" d="M0 53.6733C0 52.9817 0.273439 52.3184 0.760162 51.8294C1.24689 51.3404 1.90702 51.0656 2.59536 51.0656H20.7628C21.4512 51.0656 22.1113 51.3404 22.598 51.8294C23.0848 52.3184 23.3582 52.9817 23.3582 53.6733C23.3582 54.3649 23.0848 55.0281 22.598 55.5172C22.1113 56.0062 21.4512 56.2809 20.7628 56.2809H2.59536C1.90702 56.2809 1.24689 56.0062 0.760162 55.5172C0.273439 55.0281 0 54.3649 0 53.6733ZM0 32.8122C0 32.1206 0.273439 31.4574 0.760162 30.9683C1.24689 30.4793 1.90702 30.2046 2.59536 30.2046H41.5257C42.214 30.2046 42.8742 30.4793 43.3609 30.9683C43.8476 31.4574 44.1211 32.1206 44.1211 32.8122C44.1211 33.5038 43.8476 34.1671 43.3609 34.6561C42.8742 35.1451 42.214 35.4198 41.5257 35.4198H2.59536C1.90702 35.4198 1.24689 35.1451 0.760162 34.6561C0.273439 34.1671 0 33.5038 0 32.8122ZM0 11.9512C0 11.2596 0.273439 10.5963 0.760162 10.1073C1.24689 9.61825 1.90702 9.34352 2.59536 9.34352H41.5257C42.214 9.34352 42.8742 9.61825 43.3609 10.1073C43.8476 10.5963 44.1211 11.2596 44.1211 11.9512C44.1211 12.6427 43.8476 13.306 43.3609 13.795C42.8742 14.2841 42.214 14.5588 41.5257 14.5588H2.59536C1.90702 14.5588 1.24689 14.2841 0.760162 13.795C0.273439 13.306 0 12.6427 0 11.9512Z" fill="#43BCB5"/>
</svg>
