<svg width="174" height="175" viewBox="0 0 174 175" fill="none" xmlns="http://www.w3.org/2000/svg">
<path d="M159.856 1.15689L51.1159 33.2706C48.9086 33.964 46.9799 35.3434 45.6103 37.2082C44.2406 39.073 43.5014 41.326 43.5 43.6398V132.484C39.9389 131.619 36.2894 131.172 32.625 131.151C14.6133 131.151 0 140.892 0 152.903C0 164.913 14.6133 174.654 32.625 174.654C50.6367 174.654 65.25 164.913 65.25 152.903V73.4832L152.25 47.9935V110.736C148.689 109.868 145.04 109.42 141.375 109.4C123.363 109.4 108.75 119.141 108.75 131.151C108.75 143.162 123.363 152.903 141.375 152.903C159.387 152.903 174 143.165 174 131.151V11.5193C173.998 9.81199 173.595 8.12901 172.822 6.6066C172.049 5.08419 170.929 3.76511 169.552 2.75613C168.175 1.74715 166.579 1.0766 164.895 0.798772C163.21 0.52094 161.484 0.643623 159.856 1.15689Z" fill="#43BCB5"/>
</svg>
