<svg width="176" height="176" viewBox="0 0 176 176" fill="none" xmlns="http://www.w3.org/2000/svg">
<path d="M161.693 0.508865L51.7034 32.9917C49.4707 33.6931 47.5199 35.0883 46.1345 36.9745C44.7491 38.8608 44.0014 41.1397 44 43.4801V133.345C40.398 132.471 36.7065 132.018 33 131.997C14.7812 131.997 0 141.85 0 153.999C0 166.148 14.7812 176 33 176C51.2188 176 66 166.148 66 153.999V73.6665L154 47.8838V111.347C150.398 110.47 146.707 110.016 143 109.996C124.781 109.996 110 119.849 110 131.997C110 144.146 124.781 153.999 143 153.999C161.219 153.999 176 144.15 176 131.997V10.9904C175.998 9.26345 175.59 7.56113 174.809 6.02122C174.027 4.4813 172.894 3.14706 171.501 2.12648C170.108 1.1059 168.494 0.427656 166.79 0.14663C165.086 -0.134396 163.34 -0.010303 161.693 0.508865Z" fill="#2B2B2B"/>
</svg>
