<svg width="112" height="112" viewBox="0 0 112 112" fill="none" xmlns="http://www.w3.org/2000/svg">
<path d="M110.495 4.17676C110.235 2.9668 109.039 1.77051 107.825 1.51074C100.782 0 95.2672 0 89.7766 0C67.1946 0 53.6526 12.0757 43.5427 28H20.7458C17.1697 28.0034 12.9678 30.5977 11.3643 33.7935L0.550292 55.4087C0.216101 56.1458 0.0291682 56.9412 0 57.75C0.000502832 59.1425 0.553962 60.4777 1.53869 61.4622C2.52343 62.4467 3.85882 62.9998 5.25127 63H27.9598L23.0435 67.915C20.5573 70.4003 20.2006 74.9714 23.0435 77.8135L34.1788 88.9492C36.6192 91.3965 41.2129 91.8271 44.0832 88.9492L48.9995 84.0342V106.75C49 108.142 49.5535 109.478 50.5382 110.462C51.5229 111.447 52.8583 112 54.2508 112C55.0598 111.97 55.8552 111.783 56.5929 111.45L78.1897 100.646C81.3898 99.0493 83.9883 94.8486 83.9883 91.27V68.4243C99.869 58.2935 111.996 44.7104 111.996 22.2476C112.016 16.7344 112.016 11.2212 110.495 4.17676ZM84.0088 36.75C82.2783 36.7496 80.5868 36.236 79.1482 35.2743C77.7095 34.3126 76.5883 32.9459 75.9264 31.347C75.2645 29.7481 75.0915 27.9889 75.4293 26.2917C75.7672 24.5945 76.6007 23.0356 77.8245 21.8121C79.0483 20.5886 80.6074 19.7554 82.3047 19.418C84.002 19.0805 85.7612 19.2539 87.3599 19.9163C88.9586 20.5786 90.3251 21.7001 91.2864 23.139C92.2478 24.5779 92.7609 26.2695 92.7609 28C92.7596 30.3206 91.837 32.5457 90.1959 34.1864C88.5548 35.8272 86.3294 36.7492 84.0088 36.75Z" fill="#43BCB5"/>
</svg>
