<svg width="95" height="95" viewBox="0 0 95 95" fill="none" xmlns="http://www.w3.org/2000/svg">
<path d="M93.7235 3.54279C93.5028 2.51648 92.4881 1.50177 91.4585 1.28143C85.4844 0 80.807 0 76.1498 0C56.9954 0 45.5089 10.2428 36.9336 23.75H17.5968C14.5636 23.7529 10.9994 25.9534 9.63936 28.6641L0.466765 46.9984C0.1833 47.6237 0.0247409 48.2983 0 48.9844C0.00042651 50.1655 0.469879 51.2981 1.30514 52.1331C2.14041 52.9682 3.27311 53.4374 4.45421 53.4375H23.7159L19.5458 57.6065C17.437 59.7146 17.1344 63.5918 19.5458 66.0025L28.9909 75.448C31.0609 77.5238 34.9574 77.8891 37.392 75.448L41.5621 71.279V90.5469C41.5625 91.728 42.0319 92.8606 42.8672 93.6956C43.7025 94.5307 44.8352 94.9999 46.0163 95C46.7025 94.9746 47.3772 94.8161 48.0029 94.5332L66.3217 85.369C69.036 84.015 71.2401 80.452 71.2401 77.4165V58.0385C84.7103 49.4453 94.9966 37.924 94.9966 18.8707C95.014 14.1943 95.014 9.51798 93.7235 3.54279ZM71.2575 31.1719C69.7897 31.1715 68.3549 30.7359 67.1346 29.9202C65.9143 29.1045 64.9633 27.9452 64.4018 26.589C63.8404 25.2328 63.6937 23.7405 63.9802 22.301C64.2668 20.8614 64.9738 19.5391 66.0119 18.5013C67.0499 17.4635 68.3724 16.7568 69.812 16.4706C71.2517 16.1844 72.7439 16.3315 74.0999 16.8933C75.456 17.4551 76.615 18.4063 77.4305 19.6268C78.2459 20.8473 78.6812 22.2822 78.6812 23.75C78.68 25.7184 77.8975 27.6058 76.5054 28.9974C75.1134 30.3891 73.2259 31.1712 71.2575 31.1719Z" fill="#2B2B2B"/>
</svg>
