<svg width="99" height="112" viewBox="0 0 99 112" fill="none" xmlns="http://www.w3.org/2000/svg">
<path d="M95.4643 7.00004H68.9464L66.8692 2.90941C66.4292 2.03488 65.7514 1.29924 64.912 0.78526C64.0726 0.271276 63.1051 -0.000662367 62.1181 3.83528e-05H36.8598C35.8751 -0.00370895 34.9092 0.267215 34.0728 0.781771C33.2364 1.29633 32.5634 2.0337 32.1308 2.90941L30.0536 7.00004H3.53571C2.59798 7.00004 1.69866 7.36878 1.03559 8.02516C0.372512 8.68154 0 9.57178 0 10.5L0 17.5C0 18.4283 0.372512 19.3185 1.03559 19.9749C1.69866 20.6313 2.59798 21 3.53571 21H95.4643C96.402 21 97.3013 20.6313 97.9644 19.9749C98.6275 19.3185 99 18.4283 99 17.5V10.5C99 9.57178 98.6275 8.68154 97.9644 8.02516C97.3013 7.36878 96.402 7.00004 95.4643 7.00004ZM11.7563 102.156C11.9249 104.822 13.1134 107.324 15.0799 109.153C17.0465 110.981 19.6431 112 22.3413 112H76.6587C79.3569 112 81.9535 110.981 83.9201 109.153C85.8866 107.324 87.0751 104.822 87.2438 102.156L91.9286 28H7.07143L11.7563 102.156Z" fill="#2B2B2B"/>
</svg>
